<?xml version="1.0" encoding="utf-8"?><!DOCTYPE svg PUBLIC "-//W3C//DTD SVG 1.1//EN" "http://www.w3.org/Graphics/SVG/1.1/DTD/svg11.dtd"><svg xmlns="http://www.w3.org/2000/svg" xmlns:xlink="http://www.w3.org/1999/xlink"><symbol viewBox="0 0 24 24" id="clear"><path d="M18.984 6.422L13.406 12l5.578 5.578-1.406 1.406L12 13.406l-5.578 5.578-1.406-1.406L10.594 12 5.016 6.422l1.406-1.406L12 10.594l5.578-5.578z"/></symbol><symbol viewBox="0 0 24 24" id="close"><path d="M18.984 6.422L13.406 12l5.578 5.578-1.406 1.406L12 13.406l-5.578 5.578-1.406-1.406L10.594 12 5.016 6.422l1.406-1.406L12 10.594l5.578-5.578z"/></symbol><symbol viewBox="0 0 24 24" id="delete"><path d="M18.984 3.984V6H5.014V3.984h3.47L9.514 3h4.97l1.03.984h3.47zM6 18.984v-12h12v12q0 .797-.61 1.406t-1.405.61h-7.97q-.796 0-1.405-.61T6 18.984z"/></symbol><symbol viewBox="0 0 24 24" id="feedback"><path d="M12.984 9.984V6h-1.97v3.984h1.97zm0 4.032V12h-1.97v2.016h1.97zm7.032-12q.797 0 1.383.586t.585 1.383v12q0 .797-.586 1.406t-1.384.61H6l-3.984 3.984v-18q0-.797.586-1.383t1.383-.585h16.03z"/></symbol><symbol viewBox="0 0 24 24" id="file_download"><path d="M5.016 18h13.97v2.016H5.015V18zm13.968-9L12 15.984 5.016 9H9V3h6v6h3.984z"/></symbol><symbol viewBox="0 0 24 24" id="format_color_fill"><path d="M0 20.016h24V24H0v-3.984zm18.984-8.532Q21 13.687 21 15q0 .797-.61 1.406t-1.405.61-1.383-.61T17.016 15q0-.563.492-1.453t.96-1.453zm-13.78-1.5h9.608l-4.828-4.78zm11.343-1.03q.47.468.47 1.077t-.47 1.032l-5.484 5.484q-.47.47-1.078.47-.563 0-1.03-.47l-5.532-5.484q-.47-.422-.47-1.03t.47-1.08L8.58 3.798l-2.392-2.39L7.64 0z"/></symbol><symbol viewBox="0 0 24 24" id="lens"><path d="M12 2.016q4.125 0 7.055 2.93T21.985 12t-2.93 7.056T12 21.986t-7.055-2.93T2.015 12t2.93-7.054T12 2.016z"/></symbol><symbol viewBox="0 0 24 24" id="undo"><path d="M12.516 8.016q3.422 0 6.14 2.016t3.798 5.203l-2.344.75q-.797-2.438-2.883-3.96t-4.71-1.524q-2.907 0-5.157 1.876l3.656 3.61h-9v-9l3.563 3.608q2.952-2.578 6.937-2.578z"/></symbol></svg>